%TF.GenerationSoftware,KiCad,Pcbnew,(6.0.5)*%
%TF.CreationDate,2022-07-24T11:34:55-07:00*%
%TF.ProjectId,BRD_strobelight,4252445f-7374-4726-9f62-656c69676874,rev?*%
%TF.SameCoordinates,Original*%
%TF.FileFunction,Soldermask,Top*%
%TF.FilePolarity,Negative*%
%FSLAX46Y46*%
G04 Gerber Fmt 4.6, Leading zero omitted, Abs format (unit mm)*
G04 Created by KiCad (PCBNEW (6.0.5)) date 2022-07-24 11:34:55*
%MOMM*%
%LPD*%
G01*
G04 APERTURE LIST*
G04 Aperture macros list*
%AMRoundRect*
0 Rectangle with rounded corners*
0 $1 Rounding radius*
0 $2 $3 $4 $5 $6 $7 $8 $9 X,Y pos of 4 corners*
0 Add a 4 corners polygon primitive as box body*
4,1,4,$2,$3,$4,$5,$6,$7,$8,$9,$2,$3,0*
0 Add four circle primitives for the rounded corners*
1,1,$1+$1,$2,$3*
1,1,$1+$1,$4,$5*
1,1,$1+$1,$6,$7*
1,1,$1+$1,$8,$9*
0 Add four rect primitives between the rounded corners*
20,1,$1+$1,$2,$3,$4,$5,0*
20,1,$1+$1,$4,$5,$6,$7,0*
20,1,$1+$1,$6,$7,$8,$9,0*
20,1,$1+$1,$8,$9,$2,$3,0*%
G04 Aperture macros list end*
%ADD10RoundRect,0.250000X-0.550000X-0.550000X0.550000X-0.550000X0.550000X0.550000X-0.550000X0.550000X0*%
%ADD11C,1.600000*%
%ADD12R,2.400000X2.400000*%
%ADD13C,2.400000*%
%ADD14R,1.700000X1.700000*%
%ADD15O,1.700000X1.700000*%
%ADD16C,5.000000*%
%ADD17C,2.900000*%
%ADD18O,1.600000X1.600000*%
%ADD19C,2.000000*%
%ADD20R,1.500000X1.500000*%
%ADD21O,1.500000X1.500000*%
%ADD22C,2.700000*%
%ADD23C,4.516000*%
%ADD24C,1.524000*%
%ADD25RoundRect,0.875000X2.875000X-0.875000X2.875000X0.875000X-2.875000X0.875000X-2.875000X-0.875000X0*%
%ADD26R,1.600000X1.600000*%
%ADD27RoundRect,0.250002X1.499998X1.499998X-1.499998X1.499998X-1.499998X-1.499998X1.499998X-1.499998X0*%
%ADD28C,3.500000*%
%ADD29C,4.000000*%
%ADD30RoundRect,0.250002X-1.499998X-1.499998X1.499998X-1.499998X1.499998X1.499998X-1.499998X1.499998X0*%
G04 APERTURE END LIST*
D10*
%TO.C,DS1*%
X104200000Y-105000000D03*
D11*
X107800000Y-105000000D03*
%TD*%
D12*
%TO.C,C1*%
X108000000Y-70487246D03*
D13*
X108000000Y-77987246D03*
%TD*%
D14*
%TO.C,D2*%
X121000000Y-72525000D03*
D15*
X121000000Y-69985000D03*
X121000000Y-67445000D03*
%TD*%
D16*
%TO.C,H1*%
X78000000Y-49000000D03*
D17*
X78000000Y-49000000D03*
%TD*%
D11*
%TO.C,R2*%
X124380000Y-67380000D03*
D18*
X139620000Y-67380000D03*
%TD*%
D17*
%TO.C,H4*%
X167000000Y-116000000D03*
D16*
X167000000Y-116000000D03*
%TD*%
D19*
%TO.C,F1*%
X96000000Y-99460000D03*
X95990000Y-104540000D03*
%TD*%
D17*
%TO.C,H2*%
X167000000Y-49000000D03*
D16*
X167000000Y-49000000D03*
%TD*%
%TO.C,H3*%
X78000000Y-116000000D03*
D17*
X78000000Y-116000000D03*
%TD*%
D20*
%TO.C,D1*%
X96000000Y-81650000D03*
D21*
X96000000Y-94350000D03*
%TD*%
D22*
%TO.C,P1*%
X97093250Y-60206750D03*
X115093250Y-60206750D03*
X106093250Y-60206750D03*
D23*
X86093250Y-52906750D03*
X126093250Y-52906750D03*
%TD*%
D24*
%TO.C,T1*%
X116500000Y-96550000D03*
X111500000Y-91550000D03*
X111500000Y-96550000D03*
X114000000Y-100050000D03*
%TD*%
D25*
%TO.C,R1*%
X87000000Y-105000000D03*
X87000000Y-73000000D03*
%TD*%
D26*
%TO.C,C2*%
X104000000Y-94000000D03*
D11*
X104000000Y-96500000D03*
%TD*%
D27*
%TO.C,DS2*%
X154000000Y-111000000D03*
D28*
X147000000Y-111000000D03*
X140000000Y-111000000D03*
%TD*%
D26*
%TO.C,C3*%
X120000000Y-79000000D03*
D11*
X120000000Y-81500000D03*
%TD*%
D29*
%TO.C,SW1*%
X136500000Y-76000000D03*
X143500000Y-76000000D03*
D30*
X136500000Y-97000000D03*
D28*
X143500000Y-97000000D03*
%TD*%
D29*
%TO.C,R3*%
X157000000Y-76000000D03*
X150000000Y-76000000D03*
D30*
X150000000Y-97000000D03*
D28*
X157000000Y-97000000D03*
%TD*%
M02*
