%TF.GenerationSoftware,KiCad,Pcbnew,(6.0.5)*%
%TF.CreationDate,2022-07-24T11:34:55-07:00*%
%TF.ProjectId,BRD_strobelight,4252445f-7374-4726-9f62-656c69676874,rev?*%
%TF.SameCoordinates,Original*%
%TF.FileFunction,Legend,Bot*%
%TF.FilePolarity,Positive*%
%FSLAX46Y46*%
G04 Gerber Fmt 4.6, Leading zero omitted, Abs format (unit mm)*
G04 Created by KiCad (PCBNEW (6.0.5)) date 2022-07-24 11:34:55*
%MOMM*%
%LPD*%
G01*
G04 APERTURE LIST*
%ADD10C,0.150000*%
%ADD11C,0.120000*%
G04 APERTURE END LIST*
D10*
%TO.C,SW1*%
X141333333Y-100354761D02*
X141190476Y-100402380D01*
X140952380Y-100402380D01*
X140857142Y-100354761D01*
X140809523Y-100307142D01*
X140761904Y-100211904D01*
X140761904Y-100116666D01*
X140809523Y-100021428D01*
X140857142Y-99973809D01*
X140952380Y-99926190D01*
X141142857Y-99878571D01*
X141238095Y-99830952D01*
X141285714Y-99783333D01*
X141333333Y-99688095D01*
X141333333Y-99592857D01*
X141285714Y-99497619D01*
X141238095Y-99450000D01*
X141142857Y-99402380D01*
X140904761Y-99402380D01*
X140761904Y-99450000D01*
X140428571Y-99402380D02*
X140190476Y-100402380D01*
X140000000Y-99688095D01*
X139809523Y-100402380D01*
X139571428Y-99402380D01*
X138666666Y-100402380D02*
X139238095Y-100402380D01*
X138952380Y-100402380D02*
X138952380Y-99402380D01*
X139047619Y-99545238D01*
X139142857Y-99640476D01*
X139238095Y-99688095D01*
%TO.C,R3*%
X153666666Y-100402380D02*
X154000000Y-99926190D01*
X154238095Y-100402380D02*
X154238095Y-99402380D01*
X153857142Y-99402380D01*
X153761904Y-99450000D01*
X153714285Y-99497619D01*
X153666666Y-99592857D01*
X153666666Y-99735714D01*
X153714285Y-99830952D01*
X153761904Y-99878571D01*
X153857142Y-99926190D01*
X154238095Y-99926190D01*
X153333333Y-99402380D02*
X152714285Y-99402380D01*
X153047619Y-99783333D01*
X152904761Y-99783333D01*
X152809523Y-99830952D01*
X152761904Y-99878571D01*
X152714285Y-99973809D01*
X152714285Y-100211904D01*
X152761904Y-100307142D01*
X152809523Y-100354761D01*
X152904761Y-100402380D01*
X153190476Y-100402380D01*
X153285714Y-100354761D01*
X153333333Y-100307142D01*
D11*
%TO.C,SW1*%
X138360000Y-94990000D02*
X138360000Y-77860000D01*
X134640000Y-94990000D02*
X134640000Y-77860000D01*
X141640000Y-94990000D02*
X141640000Y-77860000D01*
X145360000Y-94990000D02*
X145360000Y-77860000D01*
%TO.C,R3*%
X155140000Y-94990000D02*
X155140000Y-77860000D01*
X158860000Y-94990000D02*
X158860000Y-77860000D01*
X148140000Y-94990000D02*
X148140000Y-77860000D01*
X151860000Y-94990000D02*
X151860000Y-77860000D01*
%TD*%
M02*
