M48
; DRILL file {KiCad (6.0.5)} date Sun Jul 24 11:35:22 2022
; FORMAT={-:-/ absolute / metric / decimal}
; #@! TF.CreationDate,2022-07-24T11:35:22-07:00
; #@! TF.GenerationSoftware,Kicad,Pcbnew,(6.0.5)
; #@! TF.FileFunction,Plated,1,2,PTH
FMAT,2
METRIC
; #@! TA.AperFunction,Plated,PTH,ComponentDrill
T1C0.600
; #@! TA.AperFunction,Plated,PTH,ComponentDrill
T2C0.750
; #@! TA.AperFunction,Plated,PTH,ComponentDrill
T3C0.762
; #@! TA.AperFunction,Plated,PTH,ComponentDrill
T4C0.800
; #@! TA.AperFunction,Plated,PTH,ComponentDrill
T5C1.000
; #@! TA.AperFunction,Plated,PTH,ComponentDrill
T6C1.200
; #@! TA.AperFunction,Plated,PTH,ComponentDrill
T7C1.300
; #@! TA.AperFunction,Plated,PTH,ComponentDrill
T8C1.550
; #@! TA.AperFunction,Plated,PTH,ComponentDrill
T9C1.800
; #@! TA.AperFunction,Plated,PTH,ComponentDrill
T10C2.500
; #@! TA.AperFunction,Plated,PTH,ComponentDrill
T11C3.500
%
G90
G05
T1
X104.2Y-105.0
X107.8Y-105.0
T2
X96.0Y-81.65
X96.0Y-94.35
T3
X111.5Y-91.55
X111.5Y-96.55
X114.0Y-100.05
X116.5Y-96.55
T4
X104.0Y-94.0
X104.0Y-96.5
X120.0Y-79.0
X120.0Y-81.5
X124.38Y-67.38
X139.62Y-67.38
T5
X95.99Y-104.54
X96.0Y-99.46
X121.0Y-67.445
X121.0Y-69.985
X121.0Y-72.525
T6
X108.0Y-70.487
X108.0Y-77.987
T8
X136.5Y-97.0
X140.0Y-111.0
X143.5Y-97.0
X147.0Y-111.0
X150.0Y-97.0
X154.0Y-111.0
X157.0Y-97.0
T9
X97.093Y-60.207
X106.093Y-60.207
X115.093Y-60.207
T10
X78.0Y-49.0
X78.0Y-116.0
X167.0Y-49.0
X167.0Y-116.0
T11
X86.093Y-52.907
X126.093Y-52.907
T7
G00X85.0Y-73.0
M15
G01X89.0Y-73.0
M16
G05
G00X85.0Y-105.0
M15
G01X89.0Y-105.0
M16
G05
T0
M30
