%TF.GenerationSoftware,KiCad,Pcbnew,(6.0.5)*%
%TF.CreationDate,2022-07-24T11:34:55-07:00*%
%TF.ProjectId,BRD_strobelight,4252445f-7374-4726-9f62-656c69676874,rev?*%
%TF.SameCoordinates,Original*%
%TF.FileFunction,Copper,L1,Top*%
%TF.FilePolarity,Positive*%
%FSLAX46Y46*%
G04 Gerber Fmt 4.6, Leading zero omitted, Abs format (unit mm)*
G04 Created by KiCad (PCBNEW (6.0.5)) date 2022-07-24 11:34:55*
%MOMM*%
%LPD*%
G01*
G04 APERTURE LIST*
G04 Aperture macros list*
%AMRoundRect*
0 Rectangle with rounded corners*
0 $1 Rounding radius*
0 $2 $3 $4 $5 $6 $7 $8 $9 X,Y pos of 4 corners*
0 Add a 4 corners polygon primitive as box body*
4,1,4,$2,$3,$4,$5,$6,$7,$8,$9,$2,$3,0*
0 Add four circle primitives for the rounded corners*
1,1,$1+$1,$2,$3*
1,1,$1+$1,$4,$5*
1,1,$1+$1,$6,$7*
1,1,$1+$1,$8,$9*
0 Add four rect primitives between the rounded corners*
20,1,$1+$1,$2,$3,$4,$5,0*
20,1,$1+$1,$4,$5,$6,$7,0*
20,1,$1+$1,$6,$7,$8,$9,0*
20,1,$1+$1,$8,$9,$2,$3,0*%
G04 Aperture macros list end*
%TA.AperFunction,ComponentPad*%
%ADD10RoundRect,0.250000X-0.550000X-0.550000X0.550000X-0.550000X0.550000X0.550000X-0.550000X0.550000X0*%
%TD*%
%TA.AperFunction,ComponentPad*%
%ADD11C,1.600000*%
%TD*%
%TA.AperFunction,ComponentPad*%
%ADD12R,2.400000X2.400000*%
%TD*%
%TA.AperFunction,ComponentPad*%
%ADD13C,2.400000*%
%TD*%
%TA.AperFunction,ComponentPad*%
%ADD14R,1.700000X1.700000*%
%TD*%
%TA.AperFunction,ComponentPad*%
%ADD15O,1.700000X1.700000*%
%TD*%
%TA.AperFunction,ConnectorPad*%
%ADD16C,5.000000*%
%TD*%
%TA.AperFunction,ComponentPad*%
%ADD17C,2.900000*%
%TD*%
%TA.AperFunction,ComponentPad*%
%ADD18O,1.600000X1.600000*%
%TD*%
%TA.AperFunction,ComponentPad*%
%ADD19C,2.000000*%
%TD*%
%TA.AperFunction,ComponentPad*%
%ADD20R,1.500000X1.500000*%
%TD*%
%TA.AperFunction,ComponentPad*%
%ADD21O,1.500000X1.500000*%
%TD*%
%TA.AperFunction,ComponentPad*%
%ADD22C,2.700000*%
%TD*%
%TA.AperFunction,ComponentPad*%
%ADD23C,4.516000*%
%TD*%
%TA.AperFunction,ComponentPad*%
%ADD24C,1.524000*%
%TD*%
%TA.AperFunction,ComponentPad*%
%ADD25RoundRect,0.875000X2.875000X-0.875000X2.875000X0.875000X-2.875000X0.875000X-2.875000X-0.875000X0*%
%TD*%
%TA.AperFunction,ComponentPad*%
%ADD26R,1.600000X1.600000*%
%TD*%
%TA.AperFunction,ComponentPad*%
%ADD27RoundRect,0.250002X1.499998X1.499998X-1.499998X1.499998X-1.499998X-1.499998X1.499998X-1.499998X0*%
%TD*%
%TA.AperFunction,ComponentPad*%
%ADD28C,3.500000*%
%TD*%
%TA.AperFunction,ComponentPad*%
%ADD29RoundRect,0.250002X-1.499998X-1.499998X1.499998X-1.499998X1.499998X1.499998X-1.499998X1.499998X0*%
%TD*%
%TA.AperFunction,Conductor*%
%ADD30C,2.000000*%
%TD*%
%TA.AperFunction,Conductor*%
%ADD31C,3.000000*%
%TD*%
%TA.AperFunction,Conductor*%
%ADD32C,4.000000*%
%TD*%
G04 APERTURE END LIST*
D10*
%TO.P,DS1,1*%
%TO.N,Net-(DS1-Pad1)*%
X104200000Y-105000000D03*
D11*
%TO.P,DS1,2*%
%TO.N,Net-(D2-Pad1)*%
X107800000Y-105000000D03*
%TD*%
D12*
%TO.P,C1,1*%
%TO.N,Net-(C1-Pad1)*%
X108000000Y-70487246D03*
D13*
%TO.P,C1,2*%
%TO.N,Net-(C1-Pad2)*%
X108000000Y-77987246D03*
%TD*%
D14*
%TO.P,D2,1,K*%
%TO.N,Net-(D2-Pad1)*%
X121000000Y-72525000D03*
D15*
%TO.P,D2,2,A*%
%TO.N,Net-(C1-Pad1)*%
X121000000Y-69985000D03*
%TO.P,D2,3,G*%
%TO.N,Net-(D2-Pad3)*%
X121000000Y-67445000D03*
%TD*%
D16*
%TO.P,H1,1,1*%
%TO.N,Net-(H1-Pad1)*%
X78000000Y-49000000D03*
D17*
X78000000Y-49000000D03*
%TD*%
D11*
%TO.P,R2,1*%
%TO.N,Net-(D2-Pad3)*%
X124380000Y-67380000D03*
D18*
%TO.P,R2,2*%
%TO.N,Net-(R2-Pad2)*%
X139620000Y-67380000D03*
%TD*%
D17*
%TO.P,H4,1,1*%
%TO.N,Net-(H1-Pad1)*%
X167000000Y-116000000D03*
D16*
X167000000Y-116000000D03*
%TD*%
D19*
%TO.P,F1,1*%
%TO.N,Net-(C2-Pad1)*%
X96000000Y-99460000D03*
%TO.P,F1,2*%
%TO.N,Net-(F1-Pad2)*%
X95990000Y-104540000D03*
%TD*%
D17*
%TO.P,H2,1,1*%
%TO.N,Net-(H1-Pad1)*%
X167000000Y-49000000D03*
D16*
X167000000Y-49000000D03*
%TD*%
%TO.P,H3,1,1*%
%TO.N,Net-(H1-Pad1)*%
X78000000Y-116000000D03*
D17*
X78000000Y-116000000D03*
%TD*%
D20*
%TO.P,D1,1,K*%
%TO.N,Net-(C1-Pad1)*%
X96000000Y-81650000D03*
D21*
%TO.P,D1,2,A*%
%TO.N,Net-(C2-Pad1)*%
X96000000Y-94350000D03*
%TD*%
D22*
%TO.P,P1,1,AC_P*%
%TO.N,Net-(P1-Pad1)*%
X97093250Y-60206750D03*
%TO.P,P1,2,AC_N*%
%TO.N,Net-(P1-Pad2)*%
X115093250Y-60206750D03*
%TO.P,P1,3,EARTH*%
%TO.N,Net-(H1-Pad1)*%
X106093250Y-60206750D03*
D23*
%TO.P,P1,MH1*%
%TO.N,N/C*%
X86093250Y-52906750D03*
%TO.P,P1,MH2*%
X126093250Y-52906750D03*
%TD*%
D24*
%TO.P,T1,1*%
%TO.N,Net-(D2-Pad1)*%
X116500000Y-96550000D03*
%TO.P,T1,2*%
%TO.N,Net-(T1-Pad2)*%
X111500000Y-91550000D03*
%TO.P,T1,3*%
%TO.N,Net-(D2-Pad1)*%
X111500000Y-96550000D03*
%TO.P,T1,4*%
%TO.N,Net-(DS2-Pad2)*%
X114000000Y-100050000D03*
%TD*%
D25*
%TO.P,R1,1*%
%TO.N,Net-(F1-Pad2)*%
X87000000Y-105000000D03*
%TO.P,R1,2*%
%TO.N,Net-(P1-Pad1)*%
X87000000Y-73000000D03*
%TD*%
D26*
%TO.P,C2,1*%
%TO.N,Net-(C2-Pad1)*%
X104000000Y-94000000D03*
D11*
%TO.P,C2,2*%
%TO.N,Net-(DS1-Pad1)*%
X104000000Y-96500000D03*
%TD*%
D27*
%TO.P,DS2,1*%
%TO.N,Net-(C1-Pad1)*%
X154000000Y-111000000D03*
D28*
%TO.P,DS2,2*%
%TO.N,Net-(DS2-Pad2)*%
X147000000Y-111000000D03*
%TO.P,DS2,3*%
%TO.N,Net-(C1-Pad2)*%
X140000000Y-111000000D03*
%TD*%
D26*
%TO.P,C3,1*%
%TO.N,Net-(C1-Pad1)*%
X120000000Y-79000000D03*
D11*
%TO.P,C3,2*%
%TO.N,Net-(T1-Pad2)*%
X120000000Y-81500000D03*
%TD*%
D29*
%TO.P,SW1,1*%
%TO.N,Net-(C1-Pad2)*%
X136500000Y-97000000D03*
D28*
%TO.P,SW1,2*%
%TO.N,Net-(P1-Pad2)*%
X143500000Y-97000000D03*
%TD*%
D29*
%TO.P,R3,1,1*%
%TO.N,Net-(C1-Pad2)*%
X150000000Y-97000000D03*
D28*
%TO.P,R3,2,2*%
%TO.N,Net-(R2-Pad2)*%
X157000000Y-97000000D03*
%TD*%
D30*
%TO.N,Net-(C2-Pad1)*%
X96000000Y-94350000D02*
X98350000Y-92000000D01*
X98350000Y-92000000D02*
X102000000Y-92000000D01*
X96000000Y-99460000D02*
X96000000Y-94350000D01*
X102000000Y-92000000D02*
X104000000Y-94000000D01*
%TO.N,Net-(D2-Pad1)*%
X109450000Y-96550000D02*
X107800000Y-98200000D01*
X111500000Y-96550000D02*
X109450000Y-96550000D01*
X116500000Y-96550000D02*
X111500000Y-96550000D01*
X107800000Y-98200000D02*
X107800000Y-105000000D01*
D31*
%TO.N,Net-(C1-Pad2)*%
X127012754Y-97000000D02*
X108000000Y-77987246D01*
X136500000Y-97000000D02*
X127012754Y-97000000D01*
D30*
%TO.N,Net-(C1-Pad1)*%
X96000000Y-81650000D02*
X96000000Y-78000000D01*
X96000000Y-78000000D02*
X103512754Y-70487246D01*
X108502246Y-69985000D02*
X121000000Y-69985000D01*
X103512754Y-70487246D02*
X108000000Y-70487246D01*
X116512754Y-79000000D02*
X108000000Y-70487246D01*
X120000000Y-79000000D02*
X116512754Y-79000000D01*
X108000000Y-70487246D02*
X108502246Y-69985000D01*
D32*
%TO.N,Net-(P1-Pad1)*%
X97093250Y-60206750D02*
X91793250Y-60206750D01*
X87000000Y-65000000D02*
X87000000Y-73000000D01*
X91793250Y-60206750D02*
X87000000Y-65000000D01*
%TO.N,Net-(P1-Pad2)*%
X115093250Y-60206750D02*
X125206750Y-60206750D01*
X131000000Y-66000000D02*
X131000000Y-79000000D01*
X125206750Y-60206750D02*
X131000000Y-66000000D01*
X131000000Y-79000000D02*
X143500000Y-91500000D01*
X143500000Y-91500000D02*
X143500000Y-97000000D01*
D30*
%TO.N,Net-(D2-Pad3)*%
X124380000Y-67380000D02*
X121065000Y-67380000D01*
X121065000Y-67380000D02*
X121000000Y-67445000D01*
%TO.N,Net-(DS1-Pad1)*%
X104000000Y-104800000D02*
X104200000Y-105000000D01*
X104000000Y-96500000D02*
X104000000Y-104800000D01*
%TD*%
%TA.AperFunction,Conductor*%
%TO.N,Net-(C1-Pad2)*%
G36*
X138942121Y-95020002D02*
G01*
X138988614Y-95073658D01*
X139000000Y-95126000D01*
X139000000Y-101000000D01*
X148000000Y-101000000D01*
X148000000Y-95126000D01*
X148020002Y-95057879D01*
X148073658Y-95011386D01*
X148126000Y-95000000D01*
X152874000Y-95000000D01*
X152942121Y-95020002D01*
X152988614Y-95073658D01*
X153000000Y-95126000D01*
X153000000Y-106874000D01*
X152979998Y-106942121D01*
X152926342Y-106988614D01*
X152874000Y-107000000D01*
X143000000Y-107000000D01*
X143000000Y-112874000D01*
X142979998Y-112942121D01*
X142926342Y-112988614D01*
X142874000Y-113000000D01*
X134126000Y-113000000D01*
X134057879Y-112979998D01*
X134011386Y-112926342D01*
X134000000Y-112874000D01*
X134000000Y-95126000D01*
X134020002Y-95057879D01*
X134073658Y-95011386D01*
X134126000Y-95000000D01*
X138874000Y-95000000D01*
X138942121Y-95020002D01*
G37*
%TD.AperFunction*%
%TD*%
%TA.AperFunction,Conductor*%
%TO.N,Net-(H1-Pad1)*%
G36*
X169015931Y-45020002D02*
G01*
X169036905Y-45036905D01*
X169963095Y-45963095D01*
X169997121Y-46025407D01*
X170000000Y-46052190D01*
X170000000Y-117947810D01*
X169979998Y-118015931D01*
X169963095Y-118036905D01*
X169036905Y-118963095D01*
X168974593Y-118997121D01*
X168947810Y-119000000D01*
X76052190Y-119000000D01*
X75984069Y-118979998D01*
X75963095Y-118963095D01*
X75036905Y-118036905D01*
X75002879Y-117974593D01*
X75000000Y-117947810D01*
X75000000Y-109000000D01*
X81000000Y-109000000D01*
X126947810Y-109000000D01*
X127015931Y-109020002D01*
X127036905Y-109036905D01*
X127963095Y-109963095D01*
X127997121Y-110025407D01*
X128000000Y-110052190D01*
X128000000Y-116000000D01*
X163000000Y-116000000D01*
X163000000Y-56000000D01*
X110000000Y-56000000D01*
X110000000Y-61947810D01*
X109979998Y-62015931D01*
X109963095Y-62036905D01*
X109036905Y-62963095D01*
X108974593Y-62997121D01*
X108947810Y-63000000D01*
X103052190Y-63000000D01*
X102984069Y-62979998D01*
X102963095Y-62963095D01*
X102036905Y-62036905D01*
X102002879Y-61974593D01*
X102000000Y-61947810D01*
X102000000Y-56000000D01*
X81000000Y-56000000D01*
X81000000Y-109000000D01*
X75000000Y-109000000D01*
X75000000Y-52877727D01*
X83321845Y-52877727D01*
X83338431Y-53210885D01*
X83339072Y-53214616D01*
X83339073Y-53214624D01*
X83353913Y-53300983D01*
X83394921Y-53539637D01*
X83490497Y-53859222D01*
X83623775Y-54165011D01*
X83625698Y-54168282D01*
X83625700Y-54168286D01*
X83790901Y-54449302D01*
X83790906Y-54449310D01*
X83792824Y-54452572D01*
X83995195Y-54717742D01*
X83997843Y-54720461D01*
X83997848Y-54720466D01*
X84225311Y-54953964D01*
X84227957Y-54956680D01*
X84230901Y-54959051D01*
X84230904Y-54959054D01*
X84484786Y-55163545D01*
X84484791Y-55163549D01*
X84487739Y-55165923D01*
X84770777Y-55342442D01*
X85072972Y-55483679D01*
X85389945Y-55587588D01*
X85717107Y-55652664D01*
X85720879Y-55652951D01*
X85720887Y-55652952D01*
X86045939Y-55677678D01*
X86045944Y-55677678D01*
X86049716Y-55677965D01*
X86382957Y-55663124D01*
X86386695Y-55662502D01*
X86386703Y-55662501D01*
X86547067Y-55635808D01*
X86712000Y-55608356D01*
X87032081Y-55514455D01*
X87338563Y-55382780D01*
X87627006Y-55215239D01*
X87893232Y-55014258D01*
X88133385Y-54782750D01*
X88343986Y-54524068D01*
X88521984Y-54241958D01*
X88664801Y-53940507D01*
X88770368Y-53624082D01*
X88837157Y-53297266D01*
X88864199Y-52964793D01*
X88864807Y-52906750D01*
X88863058Y-52877727D01*
X123321845Y-52877727D01*
X123338431Y-53210885D01*
X123339072Y-53214616D01*
X123339073Y-53214624D01*
X123353913Y-53300983D01*
X123394921Y-53539637D01*
X123490497Y-53859222D01*
X123623775Y-54165011D01*
X123625698Y-54168282D01*
X123625700Y-54168286D01*
X123790901Y-54449302D01*
X123790906Y-54449310D01*
X123792824Y-54452572D01*
X123995195Y-54717742D01*
X123997843Y-54720461D01*
X123997848Y-54720466D01*
X124225311Y-54953964D01*
X124227957Y-54956680D01*
X124230901Y-54959051D01*
X124230904Y-54959054D01*
X124484786Y-55163545D01*
X124484791Y-55163549D01*
X124487739Y-55165923D01*
X124770777Y-55342442D01*
X125072972Y-55483679D01*
X125389945Y-55587588D01*
X125717107Y-55652664D01*
X125720879Y-55652951D01*
X125720887Y-55652952D01*
X126045939Y-55677678D01*
X126045944Y-55677678D01*
X126049716Y-55677965D01*
X126382957Y-55663124D01*
X126386695Y-55662502D01*
X126386703Y-55662501D01*
X126547067Y-55635808D01*
X126712000Y-55608356D01*
X127032081Y-55514455D01*
X127338563Y-55382780D01*
X127627006Y-55215239D01*
X127893232Y-55014258D01*
X128133385Y-54782750D01*
X128343986Y-54524068D01*
X128521984Y-54241958D01*
X128664801Y-53940507D01*
X128770368Y-53624082D01*
X128837157Y-53297266D01*
X128864199Y-52964793D01*
X128864807Y-52906750D01*
X128863058Y-52877727D01*
X128844962Y-52577562D01*
X128844962Y-52577558D01*
X128844734Y-52573784D01*
X128784804Y-52245641D01*
X128685886Y-51927074D01*
X128549414Y-51622699D01*
X128377363Y-51336923D01*
X128375036Y-51333939D01*
X128375031Y-51333932D01*
X128174562Y-51076881D01*
X128174560Y-51076878D01*
X128172226Y-51073886D01*
X127936974Y-50837400D01*
X127675015Y-50630888D01*
X127390144Y-50457343D01*
X127357202Y-50442365D01*
X127329595Y-50429813D01*
X127086487Y-50319279D01*
X126768443Y-50218694D01*
X126623573Y-50191452D01*
X126444342Y-50157748D01*
X126444337Y-50157747D01*
X126440618Y-50157048D01*
X126107762Y-50135231D01*
X126103982Y-50135439D01*
X126103981Y-50135439D01*
X126005908Y-50140836D01*
X125774695Y-50153561D01*
X125770968Y-50154222D01*
X125770964Y-50154222D01*
X125508104Y-50200808D01*
X125446243Y-50211771D01*
X125442618Y-50212876D01*
X125442613Y-50212877D01*
X125236009Y-50275846D01*
X125127163Y-50309020D01*
X125123699Y-50310551D01*
X125123692Y-50310554D01*
X124936030Y-50393519D01*
X124822077Y-50443897D01*
X124818823Y-50445833D01*
X124818817Y-50445836D01*
X124538663Y-50612510D01*
X124535404Y-50614449D01*
X124271297Y-50818206D01*
X124268596Y-50820865D01*
X124268589Y-50820871D01*
X124036290Y-51049550D01*
X124033582Y-51052216D01*
X124031218Y-51055183D01*
X124031215Y-51055186D01*
X124016314Y-51073886D01*
X123825701Y-51313090D01*
X123650667Y-51597049D01*
X123511015Y-51899979D01*
X123509856Y-51903579D01*
X123509853Y-51903586D01*
X123501120Y-51930705D01*
X123408767Y-52217492D01*
X123408048Y-52221208D01*
X123408046Y-52221216D01*
X123346123Y-52541271D01*
X123345404Y-52544989D01*
X123345137Y-52548765D01*
X123345136Y-52548770D01*
X123322113Y-52873938D01*
X123321845Y-52877727D01*
X88863058Y-52877727D01*
X88844962Y-52577562D01*
X88844962Y-52577558D01*
X88844734Y-52573784D01*
X88784804Y-52245641D01*
X88685886Y-51927074D01*
X88549414Y-51622699D01*
X88377363Y-51336923D01*
X88375036Y-51333939D01*
X88375031Y-51333932D01*
X88174562Y-51076881D01*
X88174560Y-51076878D01*
X88172226Y-51073886D01*
X87936974Y-50837400D01*
X87675015Y-50630888D01*
X87390144Y-50457343D01*
X87357202Y-50442365D01*
X87329595Y-50429813D01*
X87086487Y-50319279D01*
X86768443Y-50218694D01*
X86623573Y-50191452D01*
X86444342Y-50157748D01*
X86444337Y-50157747D01*
X86440618Y-50157048D01*
X86107762Y-50135231D01*
X86103982Y-50135439D01*
X86103981Y-50135439D01*
X86005908Y-50140836D01*
X85774695Y-50153561D01*
X85770968Y-50154222D01*
X85770964Y-50154222D01*
X85508104Y-50200808D01*
X85446243Y-50211771D01*
X85442618Y-50212876D01*
X85442613Y-50212877D01*
X85236009Y-50275846D01*
X85127163Y-50309020D01*
X85123699Y-50310551D01*
X85123692Y-50310554D01*
X84936030Y-50393519D01*
X84822077Y-50443897D01*
X84818823Y-50445833D01*
X84818817Y-50445836D01*
X84538663Y-50612510D01*
X84535404Y-50614449D01*
X84271297Y-50818206D01*
X84268596Y-50820865D01*
X84268589Y-50820871D01*
X84036290Y-51049550D01*
X84033582Y-51052216D01*
X84031218Y-51055183D01*
X84031215Y-51055186D01*
X84016314Y-51073886D01*
X83825701Y-51313090D01*
X83650667Y-51597049D01*
X83511015Y-51899979D01*
X83509856Y-51903579D01*
X83509853Y-51903586D01*
X83501120Y-51930705D01*
X83408767Y-52217492D01*
X83408048Y-52221208D01*
X83408046Y-52221216D01*
X83346123Y-52541271D01*
X83345404Y-52544989D01*
X83345137Y-52548765D01*
X83345136Y-52548770D01*
X83322113Y-52873938D01*
X83321845Y-52877727D01*
X75000000Y-52877727D01*
X75000000Y-46052190D01*
X75020002Y-45984069D01*
X75036905Y-45963095D01*
X75963095Y-45036905D01*
X76025407Y-45002879D01*
X76052190Y-45000000D01*
X168947810Y-45000000D01*
X169015931Y-45020002D01*
G37*
%TD.AperFunction*%
%TD*%
%TA.AperFunction,Conductor*%
%TO.N,Net-(F1-Pad2)*%
G36*
X97942121Y-103020002D02*
G01*
X97988614Y-103073658D01*
X98000000Y-103126000D01*
X98000000Y-106874000D01*
X97979998Y-106942121D01*
X97926342Y-106988614D01*
X97874000Y-107000000D01*
X83126000Y-107000000D01*
X83057879Y-106979998D01*
X83011386Y-106926342D01*
X83000000Y-106874000D01*
X83000000Y-103126000D01*
X83020002Y-103057879D01*
X83073658Y-103011386D01*
X83126000Y-103000000D01*
X97874000Y-103000000D01*
X97942121Y-103020002D01*
G37*
%TD.AperFunction*%
%TD*%
M02*
