%TF.GenerationSoftware,KiCad,Pcbnew,(6.0.5)*%
%TF.CreationDate,2022-07-10T15:42:58-07:00*%
%TF.ProjectId,BRD_strobelight,4252445f-7374-4726-9f62-656c69676874,rev?*%
%TF.SameCoordinates,Original*%
%TF.FileFunction,Soldermask,Top*%
%TF.FilePolarity,Negative*%
%FSLAX46Y46*%
G04 Gerber Fmt 4.6, Leading zero omitted, Abs format (unit mm)*
G04 Created by KiCad (PCBNEW (6.0.5)) date 2022-07-10 15:42:58*
%MOMM*%
%LPD*%
G01*
G04 APERTURE LIST*
G04 Aperture macros list*
%AMRoundRect*
0 Rectangle with rounded corners*
0 $1 Rounding radius*
0 $2 $3 $4 $5 $6 $7 $8 $9 X,Y pos of 4 corners*
0 Add a 4 corners polygon primitive as box body*
4,1,4,$2,$3,$4,$5,$6,$7,$8,$9,$2,$3,0*
0 Add four circle primitives for the rounded corners*
1,1,$1+$1,$2,$3*
1,1,$1+$1,$4,$5*
1,1,$1+$1,$6,$7*
1,1,$1+$1,$8,$9*
0 Add four rect primitives between the rounded corners*
20,1,$1+$1,$2,$3,$4,$5,0*
20,1,$1+$1,$4,$5,$6,$7,0*
20,1,$1+$1,$6,$7,$8,$9,0*
20,1,$1+$1,$8,$9,$2,$3,0*%
G04 Aperture macros list end*
%ADD10C,2.000000*%
%ADD11RoundRect,0.875000X2.875000X-0.875000X2.875000X0.875000X-2.875000X0.875000X-2.875000X-0.875000X0*%
%ADD12RoundRect,0.250000X-0.550000X-0.550000X0.550000X-0.550000X0.550000X0.550000X-0.550000X0.550000X0*%
%ADD13C,1.600000*%
%ADD14R,2.400000X2.400000*%
%ADD15C,2.400000*%
%ADD16R,1.700000X1.700000*%
%ADD17O,1.700000X1.700000*%
%ADD18C,5.000000*%
%ADD19C,2.900000*%
%ADD20O,1.600000X1.600000*%
%ADD21R,1.500000X1.500000*%
%ADD22O,1.500000X1.500000*%
%ADD23C,2.700000*%
%ADD24C,4.516000*%
%ADD25C,1.524000*%
%ADD26R,2.480000X2.480000*%
%ADD27C,2.480000*%
%ADD28C,2.800000*%
%ADD29RoundRect,0.250001X-0.899999X-0.899999X0.899999X-0.899999X0.899999X0.899999X-0.899999X0.899999X0*%
%ADD30C,2.300000*%
G04 APERTURE END LIST*
D10*
%TO.C,F1*%
X97000000Y-93460000D03*
X96990000Y-98540000D03*
%TD*%
D11*
%TO.C,R1*%
X88000000Y-107000000D03*
X88000000Y-75000000D03*
%TD*%
D12*
%TO.C,DS1*%
X97200000Y-114000000D03*
D13*
X100800000Y-114000000D03*
%TD*%
D14*
%TO.C,C1*%
X108000000Y-83000000D03*
D15*
X108000000Y-90500000D03*
%TD*%
D16*
%TO.C,D2*%
X128000000Y-91475000D03*
D17*
X128000000Y-94015000D03*
X128000000Y-96555000D03*
%TD*%
D18*
%TO.C,H1*%
X78000000Y-62000000D03*
D19*
X78000000Y-62000000D03*
%TD*%
D13*
%TO.C,R2*%
X122000000Y-98380000D03*
D20*
X122000000Y-113620000D03*
%TD*%
D19*
%TO.C,H4*%
X167000000Y-113000000D03*
D18*
X167000000Y-113000000D03*
%TD*%
D19*
%TO.C,H2*%
X167000000Y-62000000D03*
D18*
X167000000Y-62000000D03*
%TD*%
%TO.C,H3*%
X78000000Y-113000000D03*
D19*
X78000000Y-113000000D03*
%TD*%
D21*
%TO.C,D1*%
X97000000Y-80185000D03*
D22*
X97000000Y-87805000D03*
%TD*%
D23*
%TO.C,P1*%
X111093250Y-75206750D03*
X129093250Y-75206750D03*
X120093250Y-75206750D03*
D24*
X100093250Y-67906750D03*
X140093250Y-67906750D03*
%TD*%
D25*
%TO.C,T1*%
X132550000Y-107500000D03*
X127550000Y-112500000D03*
X132550000Y-112500000D03*
X136050000Y-110000000D03*
%TD*%
D13*
%TO.C,C2*%
X97000000Y-104000000D03*
X97000000Y-106500000D03*
%TD*%
D12*
%TO.C,DS2*%
X153400000Y-80000000D03*
D13*
X157000000Y-80000000D03*
X160600000Y-80000000D03*
%TD*%
%TO.C,C3*%
X145000000Y-98000000D03*
X145000000Y-100500000D03*
%TD*%
D26*
%TO.C,SW1*%
X124400000Y-81150000D03*
D27*
X129000000Y-81150000D03*
%TD*%
D28*
%TO.C,R3*%
X112400000Y-112775000D03*
X107600000Y-112775000D03*
D29*
X107600000Y-98975000D03*
D30*
X112400000Y-98975000D03*
%TD*%
M02*
