%TF.GenerationSoftware,KiCad,Pcbnew,(6.0.5)*%
%TF.CreationDate,2022-07-10T15:42:58-07:00*%
%TF.ProjectId,BRD_strobelight,4252445f-7374-4726-9f62-656c69676874,rev?*%
%TF.SameCoordinates,Original*%
%TF.FileFunction,Copper,L1,Top*%
%TF.FilePolarity,Positive*%
%FSLAX46Y46*%
G04 Gerber Fmt 4.6, Leading zero omitted, Abs format (unit mm)*
G04 Created by KiCad (PCBNEW (6.0.5)) date 2022-07-10 15:42:58*
%MOMM*%
%LPD*%
G01*
G04 APERTURE LIST*
G04 Aperture macros list*
%AMRoundRect*
0 Rectangle with rounded corners*
0 $1 Rounding radius*
0 $2 $3 $4 $5 $6 $7 $8 $9 X,Y pos of 4 corners*
0 Add a 4 corners polygon primitive as box body*
4,1,4,$2,$3,$4,$5,$6,$7,$8,$9,$2,$3,0*
0 Add four circle primitives for the rounded corners*
1,1,$1+$1,$2,$3*
1,1,$1+$1,$4,$5*
1,1,$1+$1,$6,$7*
1,1,$1+$1,$8,$9*
0 Add four rect primitives between the rounded corners*
20,1,$1+$1,$2,$3,$4,$5,0*
20,1,$1+$1,$4,$5,$6,$7,0*
20,1,$1+$1,$6,$7,$8,$9,0*
20,1,$1+$1,$8,$9,$2,$3,0*%
G04 Aperture macros list end*
%TA.AperFunction,ComponentPad*%
%ADD10C,2.000000*%
%TD*%
%TA.AperFunction,ComponentPad*%
%ADD11RoundRect,0.875000X2.875000X-0.875000X2.875000X0.875000X-2.875000X0.875000X-2.875000X-0.875000X0*%
%TD*%
%TA.AperFunction,ComponentPad*%
%ADD12RoundRect,0.250000X-0.550000X-0.550000X0.550000X-0.550000X0.550000X0.550000X-0.550000X0.550000X0*%
%TD*%
%TA.AperFunction,ComponentPad*%
%ADD13C,1.600000*%
%TD*%
%TA.AperFunction,ComponentPad*%
%ADD14R,2.400000X2.400000*%
%TD*%
%TA.AperFunction,ComponentPad*%
%ADD15C,2.400000*%
%TD*%
%TA.AperFunction,ComponentPad*%
%ADD16R,1.700000X1.700000*%
%TD*%
%TA.AperFunction,ComponentPad*%
%ADD17O,1.700000X1.700000*%
%TD*%
%TA.AperFunction,ConnectorPad*%
%ADD18C,5.000000*%
%TD*%
%TA.AperFunction,ComponentPad*%
%ADD19C,2.900000*%
%TD*%
%TA.AperFunction,ComponentPad*%
%ADD20O,1.600000X1.600000*%
%TD*%
%TA.AperFunction,ComponentPad*%
%ADD21R,1.500000X1.500000*%
%TD*%
%TA.AperFunction,ComponentPad*%
%ADD22O,1.500000X1.500000*%
%TD*%
%TA.AperFunction,ComponentPad*%
%ADD23C,2.700000*%
%TD*%
%TA.AperFunction,ComponentPad*%
%ADD24C,4.516000*%
%TD*%
%TA.AperFunction,ComponentPad*%
%ADD25C,1.524000*%
%TD*%
%TA.AperFunction,ComponentPad*%
%ADD26R,2.480000X2.480000*%
%TD*%
%TA.AperFunction,ComponentPad*%
%ADD27C,2.480000*%
%TD*%
%TA.AperFunction,ComponentPad*%
%ADD28RoundRect,0.250001X-0.899999X-0.899999X0.899999X-0.899999X0.899999X0.899999X-0.899999X0.899999X0*%
%TD*%
%TA.AperFunction,ComponentPad*%
%ADD29C,2.300000*%
%TD*%
%TA.AperFunction,Conductor*%
%ADD30C,3.000000*%
%TD*%
%TA.AperFunction,Conductor*%
%ADD31C,2.000000*%
%TD*%
G04 APERTURE END LIST*
D10*
%TO.P,F1,1*%
%TO.N,Net-(C2-Pad1)*%
X97000000Y-93460000D03*
%TO.P,F1,2*%
%TO.N,Net-(R1-Pad1)*%
X96990000Y-98540000D03*
%TD*%
D11*
%TO.P,R1,1*%
%TO.N,Net-(R1-Pad1)*%
X88000000Y-107000000D03*
%TO.P,R1,2*%
%TO.N,Net-(P1-Pad1)*%
X88000000Y-75000000D03*
%TD*%
D12*
%TO.P,DS1,1*%
%TO.N,Net-(C2-Pad2)*%
X97200000Y-114000000D03*
D13*
%TO.P,DS1,2*%
%TO.N,Net-(D2-Pad1)*%
X100800000Y-114000000D03*
%TD*%
D14*
%TO.P,C1,1*%
%TO.N,Net-(C1-Pad1)*%
X108000000Y-83000000D03*
D15*
%TO.P,C1,2*%
%TO.N,Net-(C1-Pad2)*%
X108000000Y-90500000D03*
%TD*%
D16*
%TO.P,D2,1,K*%
%TO.N,Net-(D2-Pad1)*%
X128000000Y-91475000D03*
D17*
%TO.P,D2,2,A*%
%TO.N,Net-(C1-Pad1)*%
X128000000Y-94015000D03*
%TO.P,D2,3,G*%
%TO.N,Net-(D2-Pad3)*%
X128000000Y-96555000D03*
%TD*%
D18*
%TO.P,H1,1,1*%
%TO.N,Net-(H1-Pad1)*%
X78000000Y-62000000D03*
D19*
X78000000Y-62000000D03*
%TD*%
D13*
%TO.P,R2,1*%
%TO.N,Net-(D2-Pad3)*%
X122000000Y-98380000D03*
D20*
%TO.P,R2,2*%
%TO.N,Net-(R2-Pad2)*%
X122000000Y-113620000D03*
%TD*%
D19*
%TO.P,H4,1,1*%
%TO.N,Net-(H1-Pad1)*%
X167000000Y-113000000D03*
D18*
X167000000Y-113000000D03*
%TD*%
D19*
%TO.P,H2,1,1*%
%TO.N,Net-(H1-Pad1)*%
X167000000Y-62000000D03*
D18*
X167000000Y-62000000D03*
%TD*%
%TO.P,H3,1,1*%
%TO.N,Net-(H1-Pad1)*%
X78000000Y-113000000D03*
D19*
X78000000Y-113000000D03*
%TD*%
D21*
%TO.P,D1,1,K*%
%TO.N,Net-(C1-Pad1)*%
X97000000Y-80185000D03*
D22*
%TO.P,D1,2,A*%
%TO.N,Net-(C2-Pad1)*%
X97000000Y-87805000D03*
%TD*%
D23*
%TO.P,P1,1,AC_P*%
%TO.N,Net-(P1-Pad1)*%
X111093250Y-75206750D03*
%TO.P,P1,2,AC_N*%
%TO.N,Net-(P1-Pad2)*%
X129093250Y-75206750D03*
%TO.P,P1,3,EARTH*%
%TO.N,Net-(H1-Pad1)*%
X120093250Y-75206750D03*
D24*
%TO.P,P1,MH1*%
X100093250Y-67906750D03*
%TO.P,P1,MH2*%
X140093250Y-67906750D03*
%TD*%
D25*
%TO.P,T1,1*%
%TO.N,Net-(D2-Pad1)*%
X132550000Y-107500000D03*
%TO.P,T1,2*%
%TO.N,Net-(C3-Pad2)*%
X127550000Y-112500000D03*
%TO.P,T1,3*%
%TO.N,Net-(D2-Pad1)*%
X132550000Y-112500000D03*
%TO.P,T1,4*%
%TO.N,Net-(DS2-Pad2)*%
X136050000Y-110000000D03*
%TD*%
D13*
%TO.P,C2,1*%
%TO.N,Net-(C2-Pad1)*%
X97000000Y-104000000D03*
%TO.P,C2,2*%
%TO.N,Net-(C2-Pad2)*%
X97000000Y-106500000D03*
%TD*%
D12*
%TO.P,DS2,1*%
%TO.N,Net-(C1-Pad1)*%
X153400000Y-80000000D03*
D13*
%TO.P,DS2,2*%
%TO.N,Net-(DS2-Pad2)*%
X157000000Y-80000000D03*
%TO.P,DS2,3*%
%TO.N,Net-(C1-Pad2)*%
X160600000Y-80000000D03*
%TD*%
%TO.P,C3,1*%
%TO.N,Net-(C1-Pad1)*%
X145000000Y-98000000D03*
%TO.P,C3,2*%
%TO.N,Net-(C3-Pad2)*%
X145000000Y-100500000D03*
%TD*%
D26*
%TO.P,SW1,1*%
%TO.N,Net-(C1-Pad2)*%
X124400000Y-81150000D03*
D27*
%TO.P,SW1,2*%
%TO.N,Net-(P1-Pad2)*%
X129000000Y-81150000D03*
%TD*%
D28*
%TO.P,R3,1,1*%
%TO.N,Net-(C1-Pad2)*%
X107600000Y-98975000D03*
D29*
%TO.P,R3,2,2*%
%TO.N,Net-(R2-Pad2)*%
X112400000Y-98975000D03*
%TD*%
D30*
%TO.N,Net-(H1-Pad1)*%
X120093250Y-70000000D02*
X120093250Y-75206750D01*
D31*
%TO.N,Net-(R1-Pad1)*%
X91460000Y-98540000D02*
X96990000Y-98540000D01*
X88000000Y-102000000D02*
X91460000Y-98540000D01*
X88000000Y-107000000D02*
X88000000Y-102000000D01*
%TO.N,Net-(C3-Pad2)*%
X127550000Y-107450000D02*
X131500000Y-103500000D01*
X131500000Y-103500000D02*
X142000000Y-103500000D01*
X127550000Y-112500000D02*
X127550000Y-107450000D01*
X142000000Y-103500000D02*
X145000000Y-100500000D01*
%TO.N,Net-(D2-Pad1)*%
X132550000Y-112500000D02*
X132550000Y-107500000D01*
%TO.N,Net-(C1-Pad2)*%
X127000000Y-86000000D02*
X157000000Y-86000000D01*
X124400000Y-81150000D02*
X124400000Y-83400000D01*
X124400000Y-83400000D02*
X127000000Y-86000000D01*
X157000000Y-86000000D02*
X160600000Y-82400000D01*
X108000000Y-98240000D02*
X108000000Y-90500000D01*
X160600000Y-82400000D02*
X160600000Y-80000000D01*
X107200000Y-99040000D02*
X108000000Y-98240000D01*
%TO.N,Net-(C1-Pad1)*%
X125015000Y-94015000D02*
X128000000Y-94015000D01*
X141015000Y-94015000D02*
X128000000Y-94015000D01*
X114000000Y-83000000D02*
X125015000Y-94015000D01*
X145000000Y-98000000D02*
X141015000Y-94015000D01*
X108000000Y-83000000D02*
X114000000Y-83000000D01*
D30*
%TO.N,Net-(P1-Pad1)*%
X88206750Y-75206750D02*
X88000000Y-75000000D01*
X111093250Y-75206750D02*
X88206750Y-75206750D01*
%TO.N,Net-(P1-Pad2)*%
X129093250Y-81056750D02*
X129000000Y-81150000D01*
X129093250Y-75206750D02*
X129093250Y-81056750D01*
%TD*%
%TA.AperFunction,Conductor*%
%TO.N,Net-(H1-Pad1)*%
G36*
X169015931Y-58020002D02*
G01*
X169036905Y-58036905D01*
X169963095Y-58963095D01*
X169997121Y-59025407D01*
X170000000Y-59052190D01*
X170000000Y-114947810D01*
X169979998Y-115015931D01*
X169963095Y-115036905D01*
X169036905Y-115963095D01*
X168974593Y-115997121D01*
X168947810Y-116000000D01*
X165052190Y-116000000D01*
X164984069Y-115979998D01*
X164963095Y-115963095D01*
X164036905Y-115036905D01*
X164002879Y-114974593D01*
X164000000Y-114947810D01*
X164000000Y-71000000D01*
X81000000Y-71000000D01*
X81000000Y-114947810D01*
X80979998Y-115015931D01*
X80963095Y-115036905D01*
X80036905Y-115963095D01*
X79974593Y-115997121D01*
X79947810Y-116000000D01*
X76052190Y-116000000D01*
X75984069Y-115979998D01*
X75963095Y-115963095D01*
X75036905Y-115036905D01*
X75002879Y-114974593D01*
X75000000Y-114947810D01*
X75000000Y-59052190D01*
X75020002Y-58984069D01*
X75036905Y-58963095D01*
X75963095Y-58036905D01*
X76025407Y-58002879D01*
X76052190Y-58000000D01*
X168947810Y-58000000D01*
X169015931Y-58020002D01*
G37*
%TD.AperFunction*%
%TD*%
M02*
